<?xml version="1.0" encoding="UTF-8" standalone="no"?>
<!-- Created with Inkscape (http://www.inkscape.org/) -->

<svg
   xmlns:dc="http://purl.org/dc/elements/1.1/"
   xmlns:cc="http://creativecommons.org/ns#"
   xmlns:rdf="http://www.w3.org/1999/02/22-rdf-syntax-ns#"
   xmlns:svg="http://www.w3.org/2000/svg"
   xmlns="http://www.w3.org/2000/svg"
   xmlns:sodipodi="http://sodipodi.sourceforge.net/DTD/sodipodi-0.dtd"
   xmlns:inkscape="http://www.inkscape.org/namespaces/inkscape"
   width="32"
   height="32"
   viewBox="0 0 8.4666664 8.4666664"
   version="1.1"
   id="svg907"
   inkscape:version="0.92.3 (2405546, 2018-03-11)"
   sodipodi:docname="icon_configuration.svg">
  <defs
     id="defs901">
    <linearGradient
       id="c"
       gradientTransform="matrix(-0.10786508,0.87849049,0.87408031,0.10732357,-1.811623,758.65836)"
       gradientUnits="userSpaceOnUse"
       x1="304.76001"
       x2="335.29999"
       y1="64.294998"
       y2="81.926003">
      <stop
         offset="0"
         stop-color="#d3d7cf"
         id="stop12" />
      <stop
         offset=".18304"
         stop-color="#babdb6"
         id="stop14" />
      <stop
         offset=".31893"
         stop-color="#fff"
         id="stop16" />
      <stop
         offset=".87644"
         stop-color="#babdb6"
         id="stop18" />
      <stop
         offset="1"
         stop-color="#eeeeec"
         id="stop20" />
    </linearGradient>
    <linearGradient
       id="b"
       gradientTransform="matrix(-0.34112292,0.26690344,0.34708506,0.44633485,7.3860378,1027.6433)"
       gradientUnits="userSpaceOnUse"
       x1="-6.3077998"
       x2="-9.7747002"
       y1="44.229"
       y2="44.139999">
      <stop
         offset="0"
         id="stop7" />
      <stop
         offset="1"
         stop-opacity="0"
         id="stop9" />
    </linearGradient>
    <linearGradient
       id="a"
       gradientTransform="matrix(-0.67481701,0.52736572,0.29432462,0.37835898,77.717559,981.12162)"
       gradientUnits="userSpaceOnUse"
       x1="97.442001"
       x2="90.221001"
       y1="35.152"
       y2="35.078999">
      <stop
         offset="0"
         stop-color="#f8e27e"
         id="stop2" />
      <stop
         offset="1"
         stop-color="#e3d189"
         id="stop4" />
    </linearGradient>
  </defs>
  <sodipodi:namedview
     id="base"
     pagecolor="#ffffff"
     bordercolor="#666666"
     borderopacity="1.0"
     inkscape:pageopacity="0.0"
     inkscape:pageshadow="2"
     inkscape:zoom="16"
     inkscape:cx="20.76362"
     inkscape:cy="10.452612"
     inkscape:document-units="mm"
     inkscape:current-layer="layer1"
     showgrid="false"
     units="px"
     inkscape:window-width="1920"
     inkscape:window-height="1024"
     inkscape:window-x="0"
     inkscape:window-y="31"
     inkscape:window-maximized="1" />
  <metadata
     id="metadata904">
    <rdf:RDF>
      <cc:Work
         rdf:about="">
        <dc:format>image/svg+xml</dc:format>
        <dc:type
           rdf:resource="http://purl.org/dc/dcmitype/StillImage" />
        <dc:title />
      </cc:Work>
    </rdf:RDF>
  </metadata>
  <g
     inkscape:label="Calque 1"
     inkscape:groupmode="layer"
     id="layer1"
     transform="translate(0,-288.53333)">
    <circle
       style="fill:none;fill-opacity:1;stroke:#ac713a;stroke-width:0.7;stroke-miterlimit:4;stroke-dasharray:none;stroke-opacity:1"
       id="path815-3"
       cx="4.2333331"
       cy="292.76666"
       r="1.8478788" />
    <circle
       style="fill:none;fill-opacity:1;stroke:#3a75ac;stroke-width:0.3;stroke-miterlimit:4;stroke-dasharray:none;stroke-opacity:1"
       id="path815"
       cx="6.3345623"
       cy="292.76666"
       r="1.8478788" />
    <circle
       style="fill:none;fill-opacity:1;stroke:#3cac3a;stroke-width:0.3;stroke-miterlimit:4;stroke-dasharray:none;stroke-opacity:1"
       id="path815-3-7"
       cx="2.1321046"
       cy="292.76666"
       r="1.8478788" />
    <rect
       style="fill:#ffffff;fill-opacity:1;stroke:#ffffff;stroke-width:0.30000001;stroke-miterlimit:4;stroke-dasharray:none;stroke-opacity:1"
       id="rect869"
       width="8.4666662"
       height="1.5875"
       x="2.2252401e-07"
       y="291.9729" />
    <flowRoot
       xml:space="preserve"
       id="flowRoot871"
       style="font-style:normal;font-weight:normal;font-size:40px;line-height:1.25;font-family:sans-serif;letter-spacing:0px;word-spacing:0px;fill:#000000;fill-opacity:1;stroke:none"
       transform="matrix(0.26458333,0,0,0.26458333,12.490318,289.25574)"><flowRegion
         id="flowRegion873"><rect
           id="rect875"
           width="70.375"
           height="56.25"
           x="-46.75"
           y="-19.625" /></flowRegion><flowPara
         id="flowPara877"
         style="font-style:normal;font-variant:normal;font-weight:normal;font-stretch:normal;font-size:8px;font-family:'URW Gothic L';-inkscape-font-specification:'URW Gothic L'">DT/DICT</flowPara></flowRoot>    <g
       id="g37"
       transform="matrix(0.20486748,0,0,0.20486748,1.8701425,81.364395)">
      <path
         inkscape:connector-curvature="0"
         id="path27"
         style="fill:url(#c);fill-rule:evenodd;stroke:#3b3b3b;stroke-width:1.0266068;stroke-linecap:round;stroke-linejoin:round;stroke-dashoffset:0.3612"
         d="m 10.457382,1032.309 c -0.0557,-0.8562 0.634116,-0.2492 0.875491,0 1.024776,0.7434 2.030407,1.5156 3.067343,2.2407 0.725037,0.2552 1.421475,-0.3125 1.904389,-0.793 0.69153,-0.772 1.365424,-1.7692 1.239142,-2.855 -0.0999,-0.5511 -0.678194,-0.7556 -1.060023,-1.087 -0.948649,-0.7006 -1.905189,-1.3938 -2.848652,-2.099 0.0499,-0.5363 0.921102,-0.4312 1.352206,-0.4538 1.799481,0.032 3.760889,0.6193 4.847708,2.1483 0.893786,1.2432 1.095967,2.9098 0.645088,4.3593 0.248756,1.355 0.749129,2.6839 1.605411,3.7751 -1.055028,0.7755 -2.110005,1.5509 -3.165032,2.3264 -0.74403,-0.9699 -1.666431,-1.8128 -2.743678,-2.3982 -1.597268,0.2334 -3.230567,-0.5195 -4.193648,-1.7921 -0.762442,-0.9748 -1.327479,-2.1438 -1.525916,-3.3671 z" />
      <path
         inkscape:connector-curvature="0"
         style="opacity:0.23106001;fill:url(#b)"
         id="path29"
         d="m 20.569654,1038.9536 c -0.377958,0.2957 -0.449831,0.8327 -0.161152,1.2039 l 5.276506,7.7275 c 0.288677,0.3713 1.28112,0.076 1.659095,-0.2199 0.377957,-0.2957 0.905829,-1.1891 0.617119,-1.5603 l -6.181727,-7.0148 c -0.288677,-0.3712 -0.825389,-0.432 -1.203364,-0.1363 z" />
      <path
         style="fill:#f0f3f2;fill-rule:evenodd"
         inkscape:connector-curvature="0"
         id="path31"
         d="m 10.776308,1032.3503 c 0.0041,0.017 0.02652,0.01 0.02736,0 l 3.280939,2.4093 c 0.441955,0.3249 1.026164,0.2014 1.532663,-0.063 0.511499,-0.2667 1.030216,-0.7135 1.465827,-1.3248 0.436534,-0.6127 0.691989,-1.2801 0.782256,-1.8547 0.09008,-0.5733 -0.0071,-1.1337 -0.432392,-1.4464 l -3.308254,-2.4126 c -3.27e-4,-0.012 0.0053,-0.029 0.0034,-0.028 -0.02145,0.016 0.01356,0.01 0.02736,0 1.60773,-0.1726 3.391001,0.2382 4.500933,1.0542 1.518297,1.1161 2.06238,3.1241 1.496172,4.9767 -0.567334,1.8439 -2.398541,3.2549 -4.002325,3.466 -1.037771,0.1302 -2.105965,-0.1107 -2.984774,-0.7566 -1.106711,-0.8138 -2.046256,-2.4203 -2.389076,-4.0275 h -9.3e-5 z" />
      <path
         inkscape:connector-curvature="0"
         id="path33"
         style="fill:url(#a);stroke:#3b3b3b;stroke-width:0.86699998;stroke-linecap:round;stroke-linejoin:round;stroke-dashoffset:0.69999999"
         d="m 21.969626,1036.9102 9.581585,11.1009 c 0.570734,0.7337 -0.03271,2.1379 -1.34119,3.1605 -1.308483,1.0226 -2.814237,1.2668 -3.384954,0.5331 l -8.399386,-12.0247 3.546142,-2.7701 z m 6.345662,11.8213 c -0.650481,0.5084 -0.785855,1.4312 -0.461469,1.8482 0.324412,0.4169 1.282238,0.4855 1.932707,-0.023 0.650479,-0.5084 0.754739,-1.407 0.430357,-1.8239 -0.324413,-0.417 -1.251126,-0.5098 -1.901595,0 z" />
      <path
         style="fill:#ffffff;fill-opacity:0.57758622;stroke:#3b3b3b;stroke-width:1.28935945"
         inkscape:connector-curvature="0"
         id="path35"
         transform="matrix(0.82455744,-0.56577825,0.66205623,0.74945417,0,0)"
         d="m -679.10767,874.67072 h 3.57105 v 0.57711 h -3.57105 z" />
    </g>
  </g>
</svg>
